<?xml version="1.0" standalone="no"?>
<!DOCTYPE svg PUBLIC "-//W3C//DTD SVG 20010904//EN"
 "http://www.w3.org/TR/2001/REC-SVG-20010904/DTD/svg10.dtd">
<svg version="1.0" xmlns="http://www.w3.org/2000/svg"
 width="2300.000000pt" height="2300.000000pt" viewBox="0 0 2300.000000 2300.000000"
 preserveAspectRatio="xMidYMid meet">
<metadata>
Created by potrace 1.11, written by Peter Selinger 2001-2013
</metadata>
<g transform="translate(0.000000,2300.000000) scale(0.100000,-0.100000)"
fill="#000000" stroke="none">
<path d="M11098 22995 c-1 -1 -73 -6 -158 -9 -85 -4 -175 -8 -200 -10 -25 -2
-86 -7 -136 -11 -50 -3 -104 -8 -120 -9 -16 -2 -65 -7 -109 -11 -44 -3 -93 -8
-110 -10 -31 -4 -98 -12 -175 -21 -25 -3 -56 -7 -70 -9 -14 -3 -52 -7 -85 -10
-33 -4 -67 -8 -75 -10 -8 -2 -35 -7 -60 -10 -25 -3 -56 -8 -70 -10 -14 -3 -38
-7 -55 -9 -39 -6 -261 -44 -300 -52 -16 -3 -106 -21 -200 -40 -93 -19 -181
-37 -195 -40 -46 -10 -414 -102 -525 -132 -878 -238 -1787 -613 -2593 -1067
-64 -36 -124 -70 -132 -75 -8 -5 -78 -47 -155 -93 -77 -46 -176 -107 -220
-136 -44 -28 -93 -59 -109 -69 -191 -115 -830 -581 -1026 -748 -14 -12 -88
-75 -165 -140 -77 -65 -158 -135 -180 -156 -22 -20 -51 -46 -65 -58 -126 -107
-560 -532 -710 -696 -36 -39 -85 -93 -110 -120 -185 -202 -387 -443 -578 -689
-73 -93 -135 -174 -140 -180 -95 -118 -426 -608 -562 -830 -40 -66 -83 -136
-95 -155 -34 -56 -91 -151 -118 -200 -353 -637 -601 -1178 -825 -1800 -148
-410 -322 -1005 -386 -1320 -3 -14 -7 -34 -10 -45 -7 -30 -54 -255 -60 -290
-6 -32 -9 -49 -26 -130 -5 -27 -12 -67 -16 -89 -3 -21 -7 -46 -9 -55 -1 -9 -6
-36 -10 -61 -4 -25 -9 -54 -11 -65 -2 -11 -7 -40 -10 -65 -3 -25 -12 -85 -19
-135 -8 -49 -17 -112 -20 -140 -3 -27 -8 -63 -10 -80 -2 -16 -6 -55 -10 -85
-3 -30 -7 -75 -10 -100 -7 -64 -14 -126 -19 -195 -3 -33 -8 -89 -11 -125 -22
-246 -29 -492 -29 -910 0 -368 6 -599 18 -740 3 -25 7 -90 11 -145 3 -55 8
-113 10 -130 2 -16 6 -61 10 -100 11 -134 16 -180 20 -205 6 -30 11 -73 20
-155 4 -32 8 -67 10 -76 2 -9 6 -40 10 -70 7 -53 70 -439 80 -489 10 -50 27
-136 32 -165 10 -58 93 -422 123 -540 17 -66 32 -127 35 -135 109 -437 373
-1195 567 -1630 14 -30 51 -113 83 -185 62 -137 276 -567 346 -695 158 -287
442 -761 461 -768 4 -2 8 -8 8 -13 0 -12 141 -223 152 -227 4 -2 8 -9 8 -16 0
-7 8 -21 17 -32 10 -10 38 -48 63 -84 40 -59 248 -343 277 -380 7 -8 44 -55
83 -105 39 -49 76 -97 83 -105 7 -8 41 -51 77 -95 76 -94 313 -368 380 -440
26 -27 76 -81 111 -120 79 -87 425 -432 539 -540 353 -331 826 -718 1185 -970
39 -27 72 -51 75 -54 3 -3 12 -10 21 -16 9 -5 97 -64 195 -130 98 -66 187
-124 196 -130 10 -5 84 -51 165 -102 356 -221 858 -491 1193 -642 41 -19 104
-48 140 -64 382 -175 1052 -422 1440 -532 276 -77 440 -121 494 -131 16 -3 32
-7 36 -9 8 -5 222 -54 265 -61 17 -3 46 -9 65 -14 47 -12 235 -49 285 -56 22
-3 56 -9 75 -14 19 -5 112 -21 205 -35 94 -14 177 -28 185 -30 8 -2 42 -6 75
-10 33 -3 71 -7 85 -10 24 -4 84 -11 165 -20 51 -6 123 -14 178 -20 23 -3 74
-7 112 -10 39 -3 97 -7 130 -10 150 -12 198 -15 320 -22 279 -15 1234 -6 1346
12 13 2 67 6 119 10 52 3 109 8 125 10 17 2 68 7 115 10 47 3 92 8 100 10 8 2
44 6 79 10 36 3 79 8 95 10 17 2 69 9 116 15 47 6 96 13 110 15 14 2 45 7 70
10 45 6 72 10 133 20 17 3 46 8 62 11 28 4 105 17 170 29 17 2 41 7 55 10 14
3 41 8 60 11 19 3 38 8 41 9 3 2 28 7 55 10 27 4 57 9 66 11 10 3 30 7 45 10
223 39 754 180 1133 301 276 87 776 272 955 353 22 10 94 42 160 71 191 83
256 114 495 234 250 125 311 157 535 283 75 42 351 206 460 275 183 114 561
374 766 527 95 71 204 155 209 160 3 3 39 32 80 64 125 99 315 261 500 425
167 149 620 593 745 732 33 36 83 91 112 122 242 264 586 691 830 1032 195
273 500 750 639 1000 199 358 394 746 501 995 13 30 27 62 32 70 15 27 129
302 183 442 165 428 310 879 419 1308 64 252 79 318 128 560 17 85 36 180 42
210 6 30 13 68 16 85 2 16 12 80 23 140 10 61 21 132 25 159 3 27 12 92 20
145 8 53 16 119 19 146 3 28 10 91 16 140 16 141 19 171 30 310 6 72 12 153
15 180 20 239 27 1030 12 1330 -9 189 -22 373 -32 480 -2 22 -9 92 -15 155 -6
63 -13 126 -15 139 -3 14 -7 54 -11 90 -3 36 -8 74 -10 86 -2 11 -6 40 -9 65
-8 62 -21 149 -51 330 -15 85 -28 165 -29 177 -2 12 -6 34 -9 50 -4 15 -9 42
-12 58 -12 70 -65 319 -89 420 -15 61 -29 121 -31 135 -6 31 -82 324 -95 365
-5 17 -36 122 -70 235 -33 113 -64 214 -69 225 -4 11 -34 97 -65 190 -53 156
-168 468 -200 540 -7 17 -40 95 -73 175 -57 137 -78 186 -155 355 -89 196
-293 592 -431 840 -103 184 -345 578 -358 583 -4 2 -8 8 -8 14 0 10 -260 395
-312 463 -5 6 -74 98 -156 206 -156 208 -160 213 -321 408 -86 103 -264 311
-306 357 -5 6 -57 62 -115 125 -130 142 -501 512 -640 639 -57 52 -118 108
-134 123 -16 15 -50 45 -75 66 -25 22 -57 49 -71 61 -562 497 -1350 1041
-2070 1429 -122 66 -540 275 -650 325 -541 246 -1154 472 -1660 613 -64 17
-268 72 -290 77 -8 2 -44 12 -80 21 -36 9 -76 19 -90 22 -14 2 -50 10 -80 18
-30 8 -66 16 -80 19 -14 3 -101 21 -195 40 -93 19 -181 37 -195 39 -29 6 -143
26 -180 33 -35 6 -197 31 -245 38 -22 4 -53 9 -70 12 -16 3 -46 7 -65 9 -19 2
-109 12 -200 24 -91 11 -201 23 -245 26 -44 4 -93 8 -110 10 -63 7 -164 15
-265 21 -58 3 -130 8 -160 10 -60 6 -986 14 -992 9z"/>
</g>
</svg>
