<?xml version="1.0" standalone="no"?>
<!DOCTYPE svg PUBLIC "-//W3C//DTD SVG 20010904//EN"
 "http://www.w3.org/TR/2001/REC-SVG-20010904/DTD/svg10.dtd">
<svg version="1.0" xmlns="http://www.w3.org/2000/svg"
 width="2300.000000pt" height="2300.000000pt" viewBox="0 0 2300.000000 2300.000000"
 preserveAspectRatio="xMidYMid meet">
<metadata>
Created by potrace 1.11, written by Peter Selinger 2001-2013
</metadata>
<g transform="translate(0.000000,2300.000000) scale(0.100000,-0.100000)"
fill="#000000" stroke="none">
<path d="M10895 21484 c-250 -14 -335 -22 -645 -60 -1363 -167 -2688 -623
-3886 -1339 -150 -90 -144 -86 -379 -241 -863 -568 -1636 -1274 -2311 -2114
-243 -303 -539 -727 -741 -1065 -365 -608 -654 -1222 -876 -1860 -269 -772
-426 -1488 -517 -2360 -51 -489 -51 -1401 0 -1890 137 -1314 460 -2432 1028
-3560 120 -239 334 -620 447 -795 21 -33 263 -397 295 -444 172 -253 490 -651
754 -946 167 -185 559 -577 746 -746 526 -473 1161 -931 1755 -1266 157 -89
183 -102 380 -204 1115 -574 2275 -913 3605 -1053 470 -50 1433 -50 1900 0
927 98 1655 261 2445 546 254 91 394 148 695 280 221 97 712 347 870 443 25
15 90 53 145 85 277 163 605 382 900 604 1205 905 2208 2093 2891 3426 159
310 283 581 385 839 22 56 49 123 61 150 79 192 237 679 326 1011 136 502 259
1210 301 1735 43 522 38 1322 -10 1785 -169 1651 -671 3101 -1542 4460 -565
881 -1300 1702 -2107 2356 -793 642 -1685 1169 -2574 1520 -56 22 -123 49
-150 61 -131 54 -564 199 -796 266 -579 169 -1190 285 -1840 351 -386 40
-1103 51 -1555 25z m728 -5196 c56 -40 57 -44 77 -531 10 -249 24 -627 31
-842 6 -214 15 -400 20 -411 6 -17 22 -24 76 -34 187 -35 442 -160 625 -306
l67 -54 969 -2 970 -3 26 -24 c32 -30 36 -96 8 -130 -18 -23 -111 -39 -522
-90 -263 -33 -469 -59 -710 -90 -124 -16 -252 -32 -285 -36 -33 -3 -72 -8 -87
-11 l-27 -5 43 -67 c189 -293 310 -671 323 -1009 l6 -142 51 -5 c50 -5 1200
-27 2451 -46 341 -6 1057 -19 1590 -30 534 -11 1290 -24 1680 -30 391 -5 774
-13 853 -16 141 -6 143 -7 153 -31 15 -40 11 -91 -10 -112 -12 -12 -40 -20
-82 -25 -35 -3 -170 -20 -299 -36 -265 -33 -794 -98 -855 -105 -22 -2 -130
-16 -240 -30 -110 -13 -330 -41 -490 -60 -159 -20 -418 -51 -575 -70 -157 -20
-303 -37 -325 -40 -22 -2 -128 -16 -235 -29 -107 -14 -348 -44 -535 -66 -187
-23 -426 -52 -530 -66 -105 -13 -194 -24 -198 -24 -4 0 -7 -35 -7 -78 l0 -79
50 -11 c283 -65 511 -269 589 -527 35 -117 34 -268 -4 -385 -68 -214 -237
-389 -462 -477 -110 -44 -201 -56 -363 -50 -112 4 -149 9 -218 32 -405 136
-625 524 -506 895 55 174 166 310 333 411 73 44 213 97 285 107 l51 7 3 64 3
64 -38 -6 c-21 -4 -114 -16 -208 -27 -93 -11 -273 -34 -400 -50 -126 -16 -257
-31 -290 -35 -33 -3 -163 -19 -290 -35 -354 -45 -634 -79 -815 -100 -91 -11
-232 -29 -314 -40 -82 -11 -165 -20 -186 -20 -34 0 -41 -6 -98 -78 -34 -43
-108 -124 -164 -179 -226 -219 -449 -348 -735 -425 -111 -29 -129 -31 -298
-32 -138 -1 -199 3 -263 17 -249 54 -479 165 -681 331 -69 57 -228 218 -296
299 l-40 48 -125 14 c-69 7 -213 25 -320 38 -107 14 -222 28 -255 32 -33 3
-161 19 -285 35 -124 16 -360 45 -525 65 -165 20 -403 49 -530 65 -126 16
-257 32 -290 35 -33 4 -125 15 -204 26 -84 11 -148 16 -153 11 -5 -5 -8 -33
-6 -63 3 -52 4 -54 33 -57 116 -12 294 -91 401 -176 220 -176 316 -447 251
-708 -33 -132 -90 -231 -192 -333 -117 -117 -275 -200 -426 -224 -91 -15 -265
-13 -351 3 -147 29 -308 115 -414 224 -141 143 -204 295 -204 492 1 122 9 167
52 264 97 221 287 376 546 444 l67 17 3 69 c2 38 -1 73 -5 77 -8 8 -218 36
-778 104 -165 20 -385 47 -490 61 -104 13 -210 26 -235 29 -48 5 -474 57 -865
105 -132 17 -258 32 -280 35 -22 2 -148 17 -280 34 -624 78 -739 92 -860 106
-346 40 -575 73 -589 85 -20 15 -22 99 -4 123 16 21 101 24 1048 37 377 6
1124 19 1660 30 536 11 1261 24 1610 30 1022 16 2273 40 2428 46 l142 6 0 72
c0 210 58 496 145 716 48 120 135 290 191 374 18 28 31 52 29 54 -2 3 -73 13
-157 23 -143 17 -286 35 -738 94 -102 14 -245 32 -318 40 -185 21 -389 52
-403 60 -24 16 -39 71 -28 109 19 69 -31 66 1034 66 l956 0 77 59 c206 156
390 248 597 295 l100 23 2 104 c2 57 17 445 33 863 32 782 33 791 74 825 27
23 90 41 121 34 17 -3 42 -14 58 -25z"/>
<path d="M10752 13723 c-145 -156 -391 -428 -389 -430 13 -12 537 -48 852 -59
l200 -7 2 34 c1 19 14 122 27 229 14 107 28 230 32 273 l6 77 -310 0 -310 0
-110 -117z"/>
<path d="M11581 13833 l46 -4 7 -47 c4 -26 16 -126 26 -222 11 -96 25 -210 31
-254 l12 -79 171 7 c363 14 831 48 844 61 2 2 -93 126 -212 274 l-216 271
-377 -2 c-208 -1 -357 -3 -332 -5z"/>
<path d="M7303 11365 c-120 -31 -211 -83 -299 -170 -229 -228 -228 -570 2
-798 133 -132 347 -209 529 -191 341 33 595 285 595 588 0 396 -409 679 -827
571z"/>
<path d="M15308 11366 c-377 -100 -571 -485 -408 -812 94 -192 299 -325 535
-348 224 -23 477 92 598 271 125 183 140 374 45 570 -46 96 -167 215 -268 265
-161 80 -334 99 -502 54z"/>
</g>
</svg>
